<?xml version="1.0" standalone="no"?>
<!DOCTYPE svg PUBLIC "-//W3C//DTD SVG 20010904//EN"
 "http://www.w3.org/TR/2001/REC-SVG-20010904/DTD/svg10.dtd">
<svg version="1.0" xmlns="http://www.w3.org/2000/svg"
 width="512.000000pt" height="512.000000pt" viewBox="0 0 512.000000 512.000000"
 preserveAspectRatio="xMidYMid meet">
<metadata>
Created by potrace 1.11, written by Peter Selinger 2001-2013
</metadata>
<g transform="translate(0.000000,512.000000) scale(0.100000,-0.100000)"
fill="#000000" stroke="none">
<path d="M766 5104 c-17 -16 -19 -33 -18 -131 1 -35 -2 -63 -6 -64 -4 0 -83
-2 -177 -3 -105 -1 -185 -7 -210 -15 -173 -56 -291 -175 -336 -339 -18 -64
-19 -145 -16 -2117 1 -1127 5 -2061 9 -2075 4 -14 23 -57 43 -96 40 -81 125
-169 204 -208 114 -58 33 -56 1661 -56 1635 0 1549 -3 1665 58 65 34 167 136
200 201 52 104 53 115 54 691 l1 535 585 585 c322 322 585 593 585 602 0 9
-12 31 -26 48 l-27 31 82 83 c50 52 81 92 81 105 0 33 -323 351 -356 351 -18
0 -48 -23 -106 -80 -85 -85 -82 -84 -127 -42 -9 9 -26 11 -47 8 -24 -5 -36 -2
-46 11 -40 54 -27 63 -318 -227 -149 -150 -273 -270 -276 -268 -2 3 -4 405 -4
894 -1 518 -5 910 -11 939 -22 117 -112 245 -217 309 -95 57 -154 69 -347 71
l-170 2 -1 74 c-3 124 -6 132 -53 135 -43 3 -54 -22 -55 -125 l-1 -84 -295 0
c-162 1 -306 1 -320 2 -25 1 -25 2 -24 87 2 72 -1 89 -17 105 -25 25 -54 24
-73 -3 -11 -16 -16 -46 -16 -104 0 -57 -4 -83 -12 -86 -11 -3 -574 -2 -615 1
-7 1 -12 34 -15 96 -2 71 -7 98 -18 105 -21 14 -43 12 -65 -4 -17 -12 -20 -27
-20 -101 -1 -50 -6 -89 -12 -93 -8 -5 -560 -8 -619 -3 -7 1 -11 27 -12 69 0
104 -1 110 -18 126 -8 9 -24 16 -34 16 -10 0 -26 -7 -34 -16z m-18 -590 c1
-65 13 -84 52 -84 39 0 51 20 52 83 2 63 16 67 42 12 20 -41 20 -49 0 -90 -38
-80 -151 -79 -189 2 -19 40 -13 80 16 112 11 11 21 21 22 21 2 0 4 -25 5 -56z
m746 -2 c2 -57 18 -82 52 -82 38 0 54 26 54 88 l1 57 24 -28 c73 -83 -18 -205
-120 -162 -62 25 -83 117 -39 166 22 25 24 21 28 -39z m766 -72 c23 -15 56
-12 71 6 7 9 14 38 15 66 2 28 5 53 8 55 9 9 46 -61 46 -87 0 -68 -79 -125
-140 -100 -53 22 -75 60 -71 121 1 9 11 29 24 45 l22 29 5 -63 c3 -40 10 -66
20 -72z m728 74 c1 -65 13 -84 52 -84 40 0 54 23 52 88 l-1 57 29 -32 c22 -25
28 -39 25 -65 -11 -89 -84 -128 -163 -86 -52 27 -62 110 -20 155 12 13 22 23
23 23 0 0 2 -25 3 -56z m1851 -1801 c17 -15 31 -32 31 -38 0 -5 -232 -242
-515 -525 l-515 -515 0 70 0 70 482 482 c266 266 484 483 484 483 1 0 16 -12
33 -27z m-4719 -2117 c0 -13 16 -55 35 -94 54 -108 156 -190 274 -222 33 -9
420 -12 1547 -12 1696 0 1556 -7 1682 79 34 24 62 38 62 32 0 -6 -14 -38 -32
-71 -52 -98 -153 -175 -256 -194 -63 -12 -2949 -11 -3017 2 -74 13 -120 34
-174 81 -53 45 -94 105 -114 168 -17 51 -29 267 -15 259 5 -3 8 -16 8 -28z"/>
</g>
</svg>
